<svg width="100" height="100" viewBox="0 0 100 100" fill="none" xmlns="http://www.w3.org/2000/svg">
<circle cx="50" cy="50" r="46.5" fill="white" stroke="black" stroke-width="7"/>
<path d="M27.1133 57.5537L12.3916 51.1523V47.6074L27.1133 41.2354V45.4102L16.8447 49.3359L27.1133 53.4082V57.5537ZM44.4424 52.1045L48.6465 53.4375C48.002 55.7812 46.9277 57.5244 45.4238 58.667C43.9297 59.7998 42.0303 60.3662 39.7256 60.3662C36.874 60.3662 34.5303 59.3945 32.6943 57.4512C30.8584 55.498 29.9404 52.832 29.9404 49.4531C29.9404 45.8789 30.8633 43.1055 32.709 41.1328C34.5547 39.1504 36.9814 38.1592 39.9893 38.1592C42.6162 38.1592 44.75 38.9355 46.3906 40.4883C47.3672 41.4062 48.0996 42.7246 48.5879 44.4434L44.2959 45.4688C44.042 44.3555 43.5098 43.4766 42.6992 42.832C41.8984 42.1875 40.9219 41.8652 39.7695 41.8652C38.1777 41.8652 36.8838 42.4365 35.8877 43.5791C34.9014 44.7217 34.4082 46.5723 34.4082 49.1309C34.4082 51.8457 34.8965 53.7793 35.873 54.9316C36.8496 56.084 38.1191 56.6602 39.6816 56.6602C40.834 56.6602 41.8252 56.2939 42.6553 55.5615C43.4854 54.8291 44.0811 53.6768 44.4424 52.1045ZM57.8604 60L50.1846 38.5254H54.8867L60.3213 54.4189L65.5801 38.5254H70.1797L62.4893 60H57.8604ZM71.6006 57.5684V53.4229L81.8838 49.3799L71.6006 45.3809V41.2646L86.3369 47.6367V51.1523L71.6006 57.5684Z" fill="black"/>
</svg>
